<?xml version="1.0" encoding="utf-8"?>
<!-- Created by sK1 2.0rc5 (https://sk1project.net/) -->
<svg xmlns="http://www.w3.org/2000/svg" height="1024.0px" width="1024.0px" version="1.1" xmlns:xlink="http://www.w3.org/1999/xlink" id="bbe6ea21-549e-11ea-aad8-fcf8ae36c175">

<g style="display:none;">
</g>
<g style="display:none;">
</g>
<g>
	<g>
		<path style="stroke-width:0.0;stroke:#2d2c2b;fill-rule:evenodd;stroke-miterlimit:10.433;fill:#2d2c2b;" d="M 449.0574,531.6626 L 449.0574,520.9197 450.0326,520.9197 450.0326,531.6626 452.9636,531.6626 452.9636,513.1072 453.9389,513.1072 453.9389,531.6626 456.8699,531.6626 456.8699,520.9197 457.8451,520.9197 457.8451,531.6626 460.7761,531.6626 460.7761,513.1072 461.7514,513.1072 461.7514,531.6626 464.6824,531.6626 464.6824,520.9197 465.6576,520.9197 465.6576,531.6626 468.5886,531.6626 468.5886,513.1072 469.5639,513.1072 469.5639,531.6626 472.4949,531.6626 472.4949,520.9197 473.4701,520.9197 473.4701,531.6626 476.4011,531.6626 476.4011,513.1072 477.3764,513.1072 477.3764,531.6626 480.3074,531.6626 480.3074,520.9197 481.2826,520.9197 481.2826,531.6626 484.2136,531.6626 484.2136,513.1072 485.1889,513.1072 485.1889,531.6626 488.1199,531.6626 488.1199,520.9197 489.0951,520.9197 489.0951,531.6626 492.0261,531.6626 492.0261,513.1072 493.0014,513.1072 493.0014,531.6626 495.9324,531.6626 495.9324,520.9197 496.9076,520.9197 496.9076,531.6626 499.8386,531.6626 499.8386,513.1072 500.8139,513.1072 500.8139,531.6626 503.7449,531.6626 503.7449,520.9197 504.7201,520.9197 504.7201,531.6626 507.6511,531.6626 507.6511,513.1072 508.6264,513.1072 508.6264,531.6626 511.5574,531.6626 511.5574,520.9197 512.5326,520.9197 512.5326,531.6626 515.4636,531.6626 515.4636,513.1072 516.4389,513.1072 516.4389,531.6626 519.3699,531.6626 519.3699,520.9197 520.3451,520.9197 520.3451,531.6626 523.2761,531.6626 523.2761,513.1072 524.2514,513.1072 524.2514,531.6626 527.1824,531.6626 527.1824,520.9197 528.1576,520.9197 528.1576,531.6626 531.0886,531.6626 531.0886,513.1072 532.0639,513.1072 532.0639,531.6626 534.9949,531.6626 534.9949,520.9197 535.9701,520.9197 535.9701,531.6626 538.9011,531.6626 538.9011,513.1072 539.8764,513.1072 539.8764,531.6626 542.8074,531.6626 542.8074,520.9197 543.7826,520.9197 543.7826,531.6626 546.7136,531.6626 546.7136,513.1072 547.6889,513.1072 547.6889,531.6626 550.6199,531.6626 550.6199,520.9197 551.5951,520.9197 551.5951,531.6626 554.5261,531.6626 554.5261,513.1072 555.5014,513.1072 555.5014,531.6626 558.4324,531.6626 558.4324,520.9197 559.4076,520.9197 559.4076,531.6626 562.3386,531.6626 562.3386,513.1072 563.3139,513.1072 563.3139,531.6626 566.2449,531.6626 566.2449,520.9197 567.2201,520.9197 567.2201,531.6626 570.1511,531.6626 570.1511,513.1072 571.1264,513.1072 571.1264,531.6626 574.0574,531.6626 574.0574,520.9197 575.0326,520.9197 575.0326,531.6626 577.9636,531.6626 577.9636,513.1072 578.9389,513.1072 578.9389,531.6626 581.8699,531.6626 581.8699,520.9197 582.8451,520.9197 582.8451,531.6626 585.7761,531.6626 585.7761,494.5519 438.2228,494.5519 438.2228,531.6626 441.2449,531.6626 441.2449,520.9197 442.2201,520.9197 442.2201,531.6626 445.1511,531.6626 445.1511,513.1072 446.1264,513.1072 446.1264,531.6626 449.0574,531.6626 Z M 438.2228,532.6378 L 438.2228,532.6386 437.2476,532.6386 437.2476,493.5758 438.2228,493.5758 438.2228,493.5767 585.7761,493.5767 585.7761,493.5758 586.7514,493.5758 586.7514,532.6386 585.7761,532.6386 585.7761,532.6378 582.8451,532.6378 M 581.8699,532.6378 L 578.9389,532.6378 M 577.9636,532.6378 L 575.0326,532.6378 M 574.0574,532.6378 L 571.1264,532.6378 M 570.1511,532.6378 L 567.2201,532.6378 M 566.2449,532.6378 L 563.3139,532.6378 M 562.3386,532.6378 L 559.4076,532.6378 M 558.4324,532.6378 L 555.5014,532.6378 M 554.5261,532.6378 L 551.5951,532.6378 M 550.6199,532.6378 L 547.6889,532.6378 M 546.7136,532.6378 L 543.7826,532.6378 M 542.8074,532.6378 L 539.8764,532.6378 M 538.9011,532.6378 L 535.9701,532.6378 M 534.9949,532.6378 L 532.0639,532.6378 M 531.0886,532.6378 L 528.1576,532.6378 M 527.1824,532.6378 L 524.2514,532.6378 M 523.2761,532.6378 L 520.3451,532.6378 M 519.3699,532.6378 L 516.4389,532.6378 M 515.4636,532.6378 L 512.5326,532.6378 M 511.5574,532.6378 L 508.6264,532.6378 M 507.6511,532.6378 L 504.7201,532.6378 M 503.7449,532.6378 L 500.8139,532.6378 M 499.8386,532.6378 L 496.9076,532.6378 M 495.9324,532.6378 L 493.0014,532.6378 M 492.0261,532.6378 L 489.0951,532.6378 M 488.1199,532.6378 L 485.1889,532.6378 M 484.2136,532.6378 L 481.2826,532.6378 M 480.3074,532.6378 L 477.3764,532.6378 M 476.4011,532.6378 L 473.4701,532.6378 M 472.4949,532.6378 L 469.5639,532.6378 M 468.5886,532.6378 L 465.6576,532.6378 M 464.6824,532.6378 L 461.7514,532.6378 M 460.7761,532.6378 L 457.8451,532.6378 M 456.8699,532.6378 L 453.9389,532.6378 M 452.9636,532.6378 L 450.0326,532.6378 M 449.0574,532.6378 L 446.1264,532.6378 M 445.1511,532.6378 L 442.2201,532.6378 M 441.2449,532.6378 L 438.2228,532.6378" />
		<path style="stroke-width:0.2835;stroke:#2d2c2b;fill-rule:evenodd;stroke-miterlimit:10.433;fill:#2d2c2b;" d="M 518.053,476.3464 C 517.8271,472.8858 514.8375,470.2626 511.3769,470.4885 507.9162,470.7144 505.293,473.704 505.5189,477.1646 505.7448,480.6253 508.7345,483.2485 512.1951,483.0226 515.6557,482.7967 518.2789,479.807 518.053,476.3464 Z M 512.5852,492.1789 C 512.6501,492.4865 512.7432,492.7926 512.8657,493.094 512.954,493.3112 513.055,493.5194 513.1675,493.7181 L 513.1261,493.735 520.4901,511.8466 C 517.7022,512.536 514.7868,512.9018 511.7862,512.9018 508.8279,512.9018 505.9524,512.5462 503.2002,511.8755 L 503.2002,511.8755 510.5766,493.7332 510.5352,493.7164 C 510.6477,493.5177 510.7487,493.3095 510.837,493.0923 510.9583,492.7938 511.0507,492.4908 511.1155,492.1863 511.6006,492.2068 512.0909,492.2047 512.5853,492.179 L 512.5852,492.1789 Z M 552.6717,453.5421 C 551.8428,451.5898 549.9077,450.2202 547.6534,450.2202 544.6444,450.2202 542.2042,452.6604 542.2042,455.6694 542.2042,456.5684 542.422,457.4167 542.8077,458.1642 L 542.7958,458.1705 542.7959,458.1705 C 546.058,463.6012 547.9339,469.959 547.9339,476.7541 547.9339,489.9188 540.8926,501.4423 530.3714,507.7628 L 523.0305,489.7079 522.989,489.7248 C 522.9308,489.504 522.8578,489.2844 522.7695,489.0672 522.6297,488.7234 522.4582,488.402 522.2597,488.1051 525.5642,485.0518 527.5131,480.5878 527.1973,475.7494 526.7874,469.47 522.6771,464.3118 517.1315,462.2623 L 517.1315,462.2623 517.1315,444.5995 517.131,444.4824 C 517.0807,441.574 514.7065,439.2309 511.7861,439.2309 508.8658,439.2309 506.4916,441.574 506.4413,444.4824 L 506.44,444.4825 506.44,462.2621 C 500.1866,464.5663 495.9184,470.7734 496.3746,477.7615 496.6459,481.9171 498.5378,485.5817 501.3937,488.1792 501.2158,488.4546 501.0612,488.7507 500.9332,489.0655 500.8449,489.2827 500.7719,489.5023 500.7137,489.7231 L 500.6722,489.7062 493.3053,507.8251 C 490.3714,506.076 487.706,503.9232 485.3859,501.4433 484.3872,500.2322 482.8752,499.4601 481.1832,499.4601 478.1766,499.4601 475.7384,501.8983 475.7384,504.9049 475.7384,506.5653 476.4821,508.0525 477.6545,509.0512 L 477.643,509.063 477.643,509.063 C 480.9894,512.5982 484.8788,515.6141 489.1775,517.9772 L 467.8164,570.5146 467.6024,571.1486 C 466.9107,573.7165 468.2262,576.4576 470.7528,577.4849 473.2794,578.5122 476.1344,577.4667 477.4309,575.1448 L 477.4693,575.1603 499.0742,522.0232 C 503.1176,523.1567 507.3812,523.7629 511.7861,523.7629 516.2333,523.7629 520.5365,523.145 524.6144,521.9904 L 546.2334,575.162 546.2718,575.1465 C 547.5683,577.4685 550.4233,578.5139 552.9499,577.4866 555.4765,576.4593 556.792,573.7182 556.1003,571.1503 L 555.8863,570.5163 534.5007,517.9187 C 548.9849,509.9077 558.7949,494.4742 558.7949,476.7541 558.7949,468.3128 556.5688,460.3904 552.6717,453.5421 L 552.6717,453.5421 Z" />
		<path style="stroke-width:0.2835;stroke:#2d2c2b;fill-rule:evenodd;stroke-miterlimit:10.433;fill:#2d2c2b;" d="M 612.0003,511.9998 C 612.0003,456.7807 567.2194,411.9998 512.0003,411.9998 456.7811,411.9998 412.0003,456.7807 412.0003,511.9998 412.0003,567.219 456.7811,611.9998 512.0003,611.9998 567.2194,611.9998 612.0003,567.219 612.0003,511.9998 Z M 601.1495,511.9999 C 601.1495,462.7724 561.2277,422.8506 512.0002,422.8506 462.7727,422.8506 422.8509,462.7724 422.8509,511.9999 422.8509,561.2273 462.7727,601.1492 512.0002,601.1492 561.2277,601.1492 601.1495,561.2273 601.1495,511.9999 Z" />
	</g>
</g>
</svg>