<?xml version="1.0" encoding="utf-8"?>
<!-- Created by sK1 2.0rc5 (https://sk1project.net/) -->
<svg xmlns="http://www.w3.org/2000/svg" height="1024.0px" width="1024.0px" version="1.1" xmlns:xlink="http://www.w3.org/1999/xlink" id="9559fc2e-54f3-11ea-a095-fcf8ae36c175">

<g>
</g>
<g>
	<path style="stroke-width:0.0;stroke:#2d2c2b;fill-rule:evenodd;stroke-miterlimit:10.433;fill:#ffffff;" d="M 511.9981,583.8727 L 302.7817,374.6563 255.9985,421.4395 511.709,677.1499 511.9981,676.8609 512.2871,677.1499 767.9976,421.4395 721.2144,374.6563 511.9981,583.8727 Z M 551.3643,630.2795 L 551.3664,630.2816 511.6353,670.0128 263.0285,421.4061 302.7597,381.6749 511.6331,590.5483 720.6429,381.5385 760.3741,421.2697 551.3643,630.2795 Z" />
	<path style="stroke-width:0.0;stroke:#ffffff;fill-rule:evenodd;stroke-miterlimit:10.433;fill:#ffffff;" d="M 572.9099,418.3025 C 572.2528,408.2357 563.556,400.6048 553.4891,401.2619 543.4223,401.9191 535.7914,410.6159 536.4486,420.6827 537.1057,430.7495 545.8025,438.3804 555.8693,437.7233 565.9362,437.0661 573.5671,428.3693 572.9099,418.3025 Z M 557.0042,464.3588 C 557.193,465.2535 557.4637,466.1439 557.8202,467.0207 558.0771,467.6525 558.3708,468.2582 558.6982,468.8362 L 558.5775,468.8852 579.9991,521.5713 C 571.8892,523.5769 563.4086,524.641 554.68,524.641 546.0742,524.641 537.7095,523.6066 529.7035,521.6555 L 529.7035,521.6554 551.1613,468.8802 551.0407,468.8312 C 551.368,468.2532 551.6618,467.6475 551.9186,467.0157 552.2716,466.1476 552.5405,465.2661 552.729,464.3803 554.1401,464.44 555.5663,464.4338 557.0045,464.3589 L 557.0042,464.3588 Z M 673.6144,351.9656 C 671.2032,346.2863 665.5742,342.3021 659.0165,342.3021 650.2633,342.3021 643.1647,349.4006 643.1647,358.1538 643.1647,360.7691 643.7984,363.2366 644.9205,365.4112 L 644.8859,365.4293 644.886,365.4293 C 654.3755,381.2272 659.8325,399.7218 659.8325,419.4884 659.8325,457.7842 639.3494,491.3055 608.7437,509.6918 L 587.3892,457.1707 587.2684,457.2199 C 587.0992,456.5775 586.8869,455.9387 586.63,455.3069 586.2234,454.3068 585.7244,453.3719 585.147,452.5081 594.7597,443.6261 600.4291,430.6405 599.5103,416.5659 598.3178,398.2994 586.3611,383.2943 570.2293,377.3323 L 570.2293,377.3324 570.2293,325.9517 570.2278,325.611 C 570.0815,317.1506 563.175,310.3346 554.6797,310.3346 546.1845,310.3346 539.278,317.1506 539.1317,325.611 L 539.128,325.6113 539.128,377.3317 C 520.9372,384.0346 508.521,402.0909 509.8481,422.419 510.6372,434.5075 516.1406,445.1676 524.4486,452.7236 523.9311,453.5248 523.4812,454.386 523.1088,455.302 522.852,455.9337 522.6396,456.5725 522.4704,457.2149 L 522.3497,457.1657 500.9195,509.8731 C 492.3849,504.785 484.6314,498.5225 477.8822,491.3087 474.977,487.7855 470.5787,485.5393 465.6569,485.5393 456.9108,485.5393 449.8181,492.6321 449.8181,501.3781 449.8181,506.2084 451.9815,510.5344 455.392,513.4398 L 455.3584,513.4741 455.3584,513.4741 C 465.0931,523.7577 476.4072,532.5309 488.9121,539.4051 L 426.7732,692.2347 426.1508,694.079 C 424.1386,701.5488 427.9653,709.5226 435.3151,712.511 442.6649,715.4993 450.9701,712.4582 454.7414,705.7036 L 454.8531,705.7489 517.7012,551.1748 C 529.4633,554.4721 541.8659,556.2355 554.6796,556.2355 567.6163,556.2355 580.1341,554.4381 591.9968,551.0794 L 654.8858,705.7538 654.9975,705.7086 C 658.7687,712.4632 667.074,715.5043 674.4238,712.516 681.7735,709.5276 685.6003,701.5538 683.588,694.084 L 682.9657,692.2397 620.7555,539.2348 C 662.8897,515.9312 691.4267,471.0357 691.4267,419.4884 691.4267,394.933 684.9509,371.887 673.6144,351.9655 L 673.6144,351.9656 Z" />
	<path style="stroke-width:0.0;stroke:#ffffff;fill-rule:evenodd;stroke-miterlimit:10.433;fill:#ffffff;" d="M 365.8939,325.8029 C 365.9009,325.6094 365.9044,325.4151 365.9044,325.2199 365.9044,316.4498 358.7919,309.3375 350.0215,309.3375 341.2511,309.3375 334.1386,316.4498 334.1386,325.2199 334.1386,325.8545 334.1758,326.4804 334.2482,327.0955 L 334.2494,556.8822 365.8926,556.8822 365.8926,325.8026 365.8939,325.8029 Z" />
	<path style="stroke-width:0.0;stroke:#ffffff;fill-rule:evenodd;stroke-miterlimit:10.433;fill:#ffffff;" d="M 428.5797,325.9365 C 428.5866,325.743 428.5901,325.5487 428.5901,325.3535 428.5901,316.5834 421.5585,309.4711 412.8879,309.4711 404.2172,309.4711 397.1857,316.5834 397.1857,325.3535 397.1857,325.9881 397.2225,326.614 397.2941,327.2292 L 397.2952,557.0158 428.5784,557.0158 428.5784,325.9362 428.5797,325.9365 Z" />
	<path style="stroke-width:0.0;stroke:#ffffff;fill-rule:evenodd;stroke-miterlimit:10.433;fill:#ffffff;" d="M 396.2314,677.469 C 395.9646,669.3091 389.1308,662.908 380.9709,663.1747 372.8109,663.4415 366.4098,670.2753 366.6765,678.4352 366.9433,686.5952 373.7771,692.9963 381.9371,692.7296 390.097,692.4628 396.4981,685.629 396.2314,677.469 Z M 365.8251,599.6678 L 365.8251,644.6125 365.8249,644.6122 C 353.2651,650.4486 344.5544,663.1772 344.5544,677.9362 344.5544,698.216 361.0006,714.6622 381.2804,714.6622 401.5602,714.6622 418.0064,698.216 418.0064,677.9362 418.0064,663.3196 409.463,650.6945 397.0985,644.7831 L 397.0983,599.6337 C 415.4466,593.1667 428.6002,575.6749 428.6002,555.1171 428.6002,554.4912 428.588,553.8682 428.5639,553.2482 L 397.1917,553.2483 397.1917,556.0071 397.1377,556.0071 C 396.96,564.436 390.0691,571.2164 381.5978,571.2164 373.1264,571.2164 366.2355,564.436 366.0572,556.0073 L 365.9185,556.0071 365.9185,553.2483 334.2621,553.2483 334.2619,553.2482 C 334.2377,553.8682 334.2255,554.4912 334.2255,555.1171 334.2255,575.7113 347.4257,593.2287 365.825,599.6679 L 365.8251,599.6678 Z" />
</g>
</svg>