<?xml version="1.0" encoding="utf-8"?>
<!-- Created by sK1 2.0rc5 (https://sk1project.net/) -->
<svg xmlns="http://www.w3.org/2000/svg" height="1024.0px" width="1024.0px" version="1.1" xmlns:xlink="http://www.w3.org/1999/xlink" id="a5ffeade-54f3-11ea-8f75-fcf8ae36c175">

<g>
</g>
<g>
	<path style="stroke-width:0.0;stroke:#2d2c2b;fill-rule:evenodd;stroke-miterlimit:10.433;fill:#ffffff;" d="M 511.9993,538.9522 L 433.5431,460.4961 415.9994,478.0398 511.8909,573.9312 511.9993,573.8228 512.1077,573.9312 607.9991,478.0398 590.4554,460.4961 511.9993,538.9522 Z M 526.7616,556.3548 L 526.7624,556.3556 511.8632,571.2548 418.6357,478.0273 433.5349,463.1281 511.8624,541.4556 590.2411,463.0769 605.1403,477.9761 526.7616,556.3548 Z" />
	<path style="stroke-width:0.0;stroke:#ffffff;fill-rule:evenodd;stroke-miterlimit:10.433;fill:#ffffff;" d="M 534.8412,476.8634 C 534.5948,473.0884 531.3335,470.2268 527.5584,470.4732 523.7834,470.7197 520.9218,473.981 521.1682,477.756 521.4146,481.5311 524.6759,484.3927 528.451,484.1462 532.2261,483.8998 535.0877,480.6385 534.8412,476.8634 Z M 528.8766,494.1345 C 528.9474,494.4701 529.0489,494.804 529.1826,495.1328 529.2789,495.3697 529.3891,495.5968 529.5118,495.8136 L 529.4666,495.832 537.4997,515.5892 C 534.4585,516.3413 531.2782,516.7404 528.005,516.7404 524.7778,516.7404 521.6411,516.3525 518.6388,515.6208 L 518.6388,515.6208 526.6855,495.8301 526.6403,495.8117 C 526.763,495.595 526.8732,495.3678 526.9695,495.1309 527.1019,494.8053 527.2027,494.4748 527.2734,494.1426 527.8025,494.165 528.3374,494.1627 528.8767,494.1346 L 528.8766,494.1345 Z M 572.6054,451.9871 C 571.7012,449.8574 569.5903,448.3633 567.1312,448.3633 563.8487,448.3633 561.1868,451.0252 561.1868,454.3077 561.1868,455.2884 561.4244,456.2137 561.8452,457.0292 L 561.8322,457.036 561.8323,457.036 C 565.3908,462.9602 567.4372,469.8957 567.4372,477.3082 567.4372,491.6691 559.756,504.2396 548.2789,511.1344 L 540.2709,491.439 540.2257,491.4575 C 540.1622,491.2166 540.0826,490.977 539.9863,490.7401 539.8338,490.3651 539.6467,490.0145 539.4301,489.6905 543.0349,486.3598 545.1609,481.4902 544.8164,476.2122 544.3692,469.3623 539.8854,463.7354 533.836,461.4996 L 533.836,461.4997 533.836,442.2319 533.8354,442.1041 C 533.7806,438.9315 531.1906,436.3755 528.0049,436.3755 524.8192,436.3755 522.2292,438.9315 522.1744,442.1041 L 522.173,442.1042 522.173,461.4994 C 515.3514,464.013 510.6954,470.7841 511.193,478.4071 511.489,482.9403 513.5527,486.9378 516.6682,489.7713 516.4742,490.0718 516.3055,490.3948 516.1658,490.7382 516.0695,490.9751 515.9899,491.2147 515.9264,491.4556 L 515.8811,491.4372 507.8448,511.2024 C 504.6443,509.2944 501.7368,506.9459 499.2058,504.2407 498.1164,502.9196 496.467,502.0772 494.6213,502.0772 491.3416,502.0772 488.6818,504.737 488.6818,508.0168 488.6818,509.8281 489.4931,511.4504 490.772,512.5399 L 490.7594,512.5528 490.7594,512.5528 C 494.4099,516.4091 498.6527,519.6991 503.342,522.2769 L 480.0399,579.588 479.8066,580.2796 C 479.052,583.0808 480.487,586.071 483.2432,587.1916 485.9993,588.3122 489.1138,587.1718 490.528,584.6389 L 490.5699,584.6558 514.138,526.6905 C 518.5487,527.927 523.1997,528.5883 528.0048,528.5883 532.8561,528.5883 537.5503,527.9143 541.9988,526.6548 L 565.5822,584.6577 565.624,584.6407 C 567.0383,587.1737 570.1527,588.3141 572.9089,587.1935 575.6651,586.0729 577.1001,583.0827 576.3455,580.2815 L 576.1121,579.5899 552.7833,522.2131 C 568.5836,513.4742 579.285,496.6384 579.285,477.3081 579.285,468.0999 576.8566,459.4576 572.6054,451.9871 L 572.6054,451.9871 Z" />
	<path style="stroke-width:0.0;stroke:#ffffff;fill-rule:evenodd;stroke-miterlimit:10.433;fill:#ffffff;" d="M 457.2102,442.1761 C 457.2128,442.1035 457.2142,442.0307 457.2142,441.9575 457.2142,438.6687 454.547,436.0015 451.2581,436.0015 447.9692,436.0015 445.302,438.6687 445.302,441.9575 445.302,442.1954 445.3159,442.4301 445.3431,442.6608 L 445.3435,528.8308 457.2097,528.8308 457.2097,442.176 457.2102,442.1761 Z" />
	<path style="stroke-width:0.0;stroke:#ffffff;fill-rule:evenodd;stroke-miterlimit:10.433;fill:#ffffff;" d="M 480.7174,442.2262 C 480.72,442.1536 480.7213,442.0808 480.7213,442.0076 480.7213,438.7188 478.0844,436.0517 474.8329,436.0517 471.5815,436.0517 468.9446,438.7188 468.9446,442.0076 468.9446,442.2455 468.9584,442.4803 468.9853,442.7109 L 468.9857,528.8809 480.7169,528.8809 480.7169,442.2261 480.7174,442.2262 Z" />
	<path style="stroke-width:0.0;stroke:#ffffff;fill-rule:evenodd;stroke-miterlimit:10.433;fill:#ffffff;" d="M 468.5868,574.0509 C 468.4867,570.9909 465.9241,568.5905 462.8641,568.6905 459.8041,568.7906 457.4037,571.3532 457.5037,574.4132 457.6037,577.4732 460.1664,579.8736 463.2264,579.7736 466.2864,579.6735 468.6868,577.1109 468.5868,574.0509 Z M 457.1844,544.8754 L 457.1844,561.7297 457.1843,561.7296 C 452.4744,563.9182 449.2079,568.6914 449.2079,574.2261 449.2079,581.831 455.3752,587.9983 462.9802,587.9983 470.5851,587.9983 476.7524,581.831 476.7524,574.2261 476.7524,568.7449 473.5486,564.0104 468.9119,561.7936 L 468.9119,544.8626 C 475.7925,542.4375 480.7251,535.8781 480.7251,528.1689 480.7251,527.9342 480.7205,527.7006 480.7115,527.4681 L 468.9469,527.4681 468.9469,528.5027 468.9266,528.5027 C 468.86,531.6635 466.2759,534.2061 463.0992,534.2061 459.9224,534.2061 457.3383,531.6635 457.2714,528.5027 L 457.2195,528.5027 457.2195,527.4681 445.3483,527.4681 445.3482,527.4681 C 445.3391,527.7006 445.3346,527.9342 445.3346,528.1689 445.3346,535.8917 450.2846,542.4607 457.1844,544.8755 L 457.1844,544.8754 Z" />
</g>
</svg>