<?xml version="1.0" encoding="utf-8"?>
<!-- Created by sK1 2.0rc5 (https://sk1project.net/) -->
<svg xmlns="http://www.w3.org/2000/svg" height="1024.0px" width="1024.0px" version="1.1" xmlns:xlink="http://www.w3.org/1999/xlink" id="f792e09e-54ea-11ea-ba42-fcf8ae36c175">

<g>
</g>
<g>
	<path style="stroke:#2d2c2b;fill-rule:evenodd;stroke-miterlimit:10.433;fill:#00a0e1;" d="M 511.9981,664.8556 L 141.3091,294.1667 58.4188,377.057 511.4859,830.124 511.9981,829.6118 512.5103,830.124 965.5773,377.057 882.687,294.1667 511.9981,664.8556 Z M 581.747,747.0791 L 581.7508,747.0829 511.3553,817.4784 70.8745,376.9977 141.2701,306.6021 511.3515,676.6835 881.6744,306.3605 952.07,376.7561 581.747,747.0791 Z" />
	<path style="stroke:#ffffff;fill-rule:evenodd;stroke-miterlimit:10.433;fill:#ffffff;" d="M 619.9215,345.987 C 618.7572,328.1507 603.3482,314.6302 585.5118,315.7946 567.6755,316.959 554.155,332.3679 555.3194,350.2043 556.4838,368.0406 571.8927,381.5611 589.7291,380.3967 607.5655,379.2324 621.0859,363.8234 619.9215,345.987 Z M 591.7399,427.5895 C 592.0744,429.1747 592.554,430.7523 593.1857,432.3058 593.6408,433.4252 594.1612,434.4984 594.7412,435.5225 L 594.5275,435.6094 632.4822,528.9584 C 618.1131,532.5119 603.0872,534.3973 587.6218,534.3973 572.374,534.3973 557.5535,532.5646 543.3685,529.1075 L 543.3685,529.1074 581.3874,435.6005 581.1737,435.5136 C 581.7537,434.4896 582.2741,433.4163 582.7292,432.297 583.3546,430.7588 583.831,429.197 584.165,427.6276 586.6652,427.7333 589.1922,427.7223 591.7403,427.5895 L 591.7399,427.5895 Z M 798.3494,228.4514 C 794.0773,218.3889 784.1038,211.3297 772.4849,211.3297 756.976,211.3297 744.3988,223.9069 744.3988,239.4158 744.3988,244.0494 745.5215,248.4214 747.5097,252.2744 L 747.4484,252.3065 747.4486,252.3064 C 764.2619,280.297 773.9308,313.0658 773.9308,348.0883 773.9308,415.9406 737.6389,475.3335 683.4117,507.9103 L 645.5758,414.8537 645.3619,414.9408 C 645.0621,413.8026 644.6859,412.6708 644.2308,411.5514 643.5103,409.7794 642.6262,408.1229 641.6031,406.5924 658.6349,390.8553 668.6799,367.8474 667.052,342.9101 664.9392,310.5455 643.7543,283.9596 615.172,273.3962 L 615.172,273.3964 615.172,182.3602 615.1693,181.7566 C 614.9101,166.7664 602.6732,154.6899 587.6213,154.6899 572.5694,154.6899 560.3325,166.7664 560.0734,181.7566 L 560.0669,181.757 560.0669,273.395 C 527.8364,285.2712 505.8375,317.2634 508.1887,353.2807 509.5869,374.699 519.3379,393.5865 534.0578,406.9742 533.1409,408.3938 532.3439,409.9197 531.6841,411.5426 531.229,412.6619 530.8528,413.7938 530.5529,414.932 L 530.3391,414.8448 492.369,508.2316 C 477.2475,499.2165 463.5099,488.1205 451.5516,475.3391 446.4043,469.0969 438.6114,465.1171 429.8909,465.1171 414.3947,465.1171 401.8278,477.6839 401.8278,493.1801 401.8278,501.7384 405.6609,509.4032 411.7036,514.551 L 411.6441,514.6117 411.6441,514.6118 C 428.892,532.8322 448.9383,548.3766 471.0944,560.5562 L 360.9968,831.3394 359.8941,834.6071 C 356.3289,847.8421 363.1091,861.97 376.1314,867.2648 389.1537,872.5595 403.8689,867.1713 410.5509,855.2036 L 410.7487,855.2837 522.1029,581.4098 C 542.9429,587.252 564.9179,590.3763 587.621,590.3763 610.5424,590.3763 632.7214,587.1916 653.7396,581.2408 L 765.1661,855.2925 765.364,855.2124 C 772.0459,867.1802 786.7612,872.5683 799.7835,867.2736 812.8058,861.9789 819.586,847.8509 816.0207,834.6159 L 814.918,831.3483 704.6942,560.2545 C 779.3474,518.9653 829.9092,439.4196 829.9092,348.0881 829.9092,304.5809 818.4355,263.7482 798.3495,228.4514 L 798.3494,228.4514 Z" />
	<g>
		<path style="stroke:#ffffff;fill-rule:evenodd;stroke-miterlimit:10.433;fill:#ffffff;" d="M 253.1311,182.0965 C 253.1435,181.7537 253.1497,181.4094 253.1497,181.0636 253.1497,165.5246 240.5478,152.9231 225.0084,152.9231 209.4691,152.9231 196.8671,165.5246 196.8671,181.0636 196.8671,182.1879 196.9331,183.2969 197.0614,184.3868 L 197.0634,591.5221 253.1289,591.5221 253.1289,182.0959 253.1311,182.0965 Z" />
		<path style="stroke:#ffffff;fill-rule:evenodd;stroke-miterlimit:10.433;fill:#ffffff;" d="M 364.1976,182.3332 C 364.2098,181.9904 364.216,181.6461 364.216,181.3003 364.216,165.7614 351.7575,153.1598 336.3949,153.1598 321.0323,153.1598 308.5738,165.7614 308.5738,181.3003 308.5738,182.4247 308.639,183.5336 308.7658,184.6235 L 308.7679,591.7589 364.1954,591.7589 364.1954,182.3327 364.1976,182.3332 Z" />
		<path style="stroke:#ffffff;fill-rule:evenodd;stroke-miterlimit:10.433;fill:#ffffff;" d="M 306.883,805.1776 C 306.4103,790.7198 294.3022,779.3783 279.8444,779.8509 265.3867,780.3236 254.0452,792.4317 254.5178,806.8895 254.9905,821.3473 267.0986,832.6888 281.5564,832.2161 296.0142,831.7435 307.3556,819.6354 306.883,805.1776 Z M 253.0091,667.3295 L 253.0091,746.9625 253.0088,746.9619 C 230.7555,757.3029 215.3219,779.8553 215.3219,806.0053 215.3219,841.937 244.4613,871.0763 280.3929,871.0763 316.3246,871.0763 345.464,841.937 345.464,806.0053 345.464,780.1077 330.3268,757.7384 308.4193,747.2647 L 308.419,667.2691 C 340.9286,655.811 364.234,624.8191 364.234,588.3947 364.234,587.2858 364.2124,586.1819 364.1696,585.0835 L 308.5845,585.0836 308.5845,589.9717 308.4887,589.9717 C 308.174,604.906 295.9647,616.9194 280.9552,616.9194 265.9457,616.9194 253.7364,604.906 253.4204,589.972 L 253.1748,589.9717 253.1748,585.0836 197.0861,585.0836 197.0856,585.0835 C 197.0428,586.1819 197.0212,587.2858 197.0212,588.3947 197.0212,624.8835 220.4093,655.9207 253.009,667.3298 L 253.0091,667.3295 Z" />
	</g>
</g>
</svg>